<?xml version="1.0" encoding="UTF-8"?>
<svg id="Camada_2" data-name="Camada 2" xmlns="http://www.w3.org/2000/svg" viewBox="0 0 916.03 212.69">
  <defs>
    <style>
      .cls-1 {
        fill: #c60;
      }

      .cls-1, .cls-2, .cls-3 {
        stroke-width: 0px;
      }

      .cls-2 {
        fill: #c5c5c5;
      }

      .cls-3 {
        fill: #555;
      }
    </style>
  </defs>
  <g id="Camada_1-2" data-name="Camada 1">
    <g>
      <path class="cls-2" d="m.07,168.08c-.43-3.04,1.06-4.98,3.64-6.43,4.16-2.34,8.25-4.8,12.51-7.28-11.58-23.41-14.23-47.74-7.31-73,6.9-25.19,21.6-45.11,43.73-60.14-1.02-1.75-2.05-3.51-3.08-5.27-1.4-2.4-2.82-4.8-4.21-7.21-1.96-3.41-1.43-6.09,1.53-7.84,3-1.77,5.64-.96,7.62,2.38,2.42,4.1,4.81,8.22,7.34,12.55C85.59,3.97,110.23.91,135.62,7.27c25.42,6.37,45.33,20.6,60.09,42.26,3.41-1.99,6.75-3.95,10.1-5.9,1.05-.61,2.09-1.26,3.16-1.83,3.1-1.63,5.76-1.04,7.32,1.6,1.57,2.66.86,5.35-2.11,7.18-3.73,2.3-7.56,4.45-11.35,6.67-.56.33-1.12.65-1.94,1.13,11.52,23.23,14.23,47.55,7.35,72.8-6.88,25.29-21.58,45.3-43.86,60.39.85,1.46,1.72,2.94,2.58,4.42,1.52,2.61,3,5.25,4.59,7.82,1.53,2.47,1.8,4.87-.12,7.32l-2.53,1.48c-3.07.47-5.04-.93-6.43-3.48-1.21-2.23-2.55-4.4-3.83-6.59-1.1-1.89-2.21-3.78-3.31-5.67-24.03,11.94-48.66,14.97-74.04,8.57-25.36-6.4-45.24-20.64-59.9-42.2-4.27,2.49-8.41,4.85-12.5,7.32-2.54,1.53-4.96,1.87-7.39.01l-1.44-2.47ZM186.5,54.91C161.02,15.07,107.19,3.1,67.15,24.91c2.48,4.25,5.01,8.46,7.42,12.74,1.59,2.83.76,5.74-1.89,7.28-2.64,1.54-5.59.82-7.27-1.93-2.2-3.6-4.27-7.27-6.4-10.9-.38-.64-.81-1.26-1.22-1.88C16.3,57.47,4.7,110.13,25.38,148.88c.7-.36,1.41-.7,2.09-1.09,3.3-1.92,6.59-3.86,9.9-5.77,3.86-2.24,6.66-1.85,8.35,1.13,1.65,2.92.64,5.47-3.08,7.67-3.22,1.9-6.45,3.77-9.68,5.66-.8.47-1.6.94-2.42,1.42,28.51,43.13,83.56,50.01,119.47,29.85-.47-.81-.95-1.62-1.42-2.43-2.04-3.51-4.17-6.96-6.07-10.54-1.45-2.73-.58-5.35,1.97-6.84,2.56-1.5,5.17-.95,6.95,1.6,1.04,1.5,1.89,3.13,2.82,4.71,1.64,2.79,3.26,5.58,4.89,8.37,42.17-27.3,53.1-81.12,32.51-118.69-.7.37-1.42.71-2.1,1.11-3.51,2.04-7,4.13-10.53,6.13-3.24,1.82-5.93,1.27-7.56-1.42-1.67-2.76-.79-5.45,2.48-7.46,1.04-.64,2.1-1.23,3.15-1.85,3.13-1.83,6.27-3.66,9.41-5.49Z"/>
      <g>
        <path class="cls-3" d="m97.86,103.12l-2.19,12.19c-.19,1.21-.1,2.02.29,2.43.38.41,1.17.62,2.38.62h28.95l-3.24,18.28h-40.85c-10.98,0-15.49-5.46-13.52-16.38l3.05-17.14h-18.09l3.14-17.9h18.09l6.57-11.43h20.57l-2,11.43h32.09l-3.14,17.9h-32.09Z"/>
        <path class="cls-3" d="m206.7,85.22c12.57,0,17.74,6.29,15.52,18.85l-5.81,32.57h-21.33l-.67-4.29c-2.48,1.84-4.78,3.02-6.9,3.52-2.13.51-5.32.76-9.57.76h-36.09c-3.94,0-6.89-1.17-8.86-3.52-1.97-2.35-2.57-5.52-1.81-9.52l.95-5.14c1.46-7.81,6.03-11.71,13.71-11.71h50.76l.48-2.86c.25-1.4.16-2.35-.29-2.86-.44-.51-1.37-.76-2.76-.76h-29.33c-1.21,0-2.03.21-2.48.62-.44.41-.79,1.22-1.05,2.43l-.19,1.05h-24.19l.67-4.09c.89-5.52,2.7-9.41,5.43-11.67,2.73-2.25,6.86-3.38,12.38-3.38h51.42Zm-18.47,38.28c1.84,0,3.3-.51,4.38-1.52l1.52-1.33.67-3.81h-34.95c-1.02,0-1.7.16-2.05.48-.35.32-.62.99-.81,2l-.29,1.71c-.13,1.02-.05,1.68.24,2,.29.32.94.48,1.95.48h29.33Z"/>
        <path class="cls-3" d="m270.5,85.22h23.04l-3.71,20.76h-29.81c-2.29,0-4,.51-5.14,1.52l-1.52,1.33-4.95,27.81h-25.14l9.14-51.42h18.47l.86,6.48c3.43-2.79,6.25-4.57,8.48-5.33,2.22-.76,5.65-1.14,10.28-1.14Z"/>
        <path class="cls-3" d="m364.59,85.22h21.33l-8.48,47.61c-1.21,6.85-3.54,11.74-7,14.66-3.46,2.92-8.59,4.38-15.38,4.38h-67.61l2.95-16.76h56.94c1.71,0,2.97-.32,3.76-.95.79-.63,1.32-1.78,1.57-3.43l.38-2.38c-1.97,1.27-3.95,2.11-5.95,2.52-2,.41-4.81.62-8.43.62h-30.66c-6.28,0-10.7-1.54-13.24-4.62-2.54-3.08-3.27-7.82-2.19-14.24l1.71-10.09c1.08-6.41,3.16-10.9,6.24-13.47,3.08-2.57,7.79-3.86,14.14-3.86h31.42c4.38,0,7.62.32,9.71.95,2.09.64,4.19,2.03,6.28,4.19l2.48-5.14Zm-10.28,28.76l1.62-1.33.29-1.9,1.05-5.9-1.05-1.33c-.83-1.01-2.38-1.52-4.67-1.52h-28.47c-1.4,0-2.38.25-2.95.76-.57.51-.99,1.46-1.24,2.86l-1.14,6.28c-.25,1.4-.16,2.35.29,2.86.44.51,1.36.76,2.76.76h28.47c2.1,0,3.78-.51,5.05-1.52Z"/>
        <path class="cls-3" d="m461.14,85.22c6.28,0,10.7,1.54,13.24,4.62,2.54,3.08,3.27,7.82,2.19,14.24l-1.71,9.9h-62.47l-.38,2.29c-.25,1.4-.16,2.35.29,2.86.44.51,1.36.76,2.76.76h31.61c1.21,0,2.03-.21,2.48-.62.44-.41.79-1.22,1.05-2.43l.1-.48h24.19l-.95,5.24c-1.02,5.52-2.86,9.41-5.52,11.67-2.67,2.25-6.73,3.38-12.19,3.38h-53.71c-12.44,0-17.58-6.29-15.43-18.85l2.67-15.24c1.08-6.35,3.16-10.82,6.24-13.43,3.08-2.6,7.79-3.9,14.14-3.9h51.42Zm-46.66,17.14l-.29,1.52h38.28l.29-1.52c.25-1.4.16-2.35-.29-2.86-.44-.51-1.37-.76-2.76-.76h-31.04c-1.4,0-2.38.25-2.95.76-.57.51-.98,1.46-1.24,2.86Z"/>
        <path class="cls-3" d="m523.9,103.12l-2.19,12.19c-.19,1.21-.1,2.02.29,2.43.38.41,1.17.62,2.38.62h28.95l-3.24,18.28h-40.85c-10.98,0-15.49-5.46-13.52-16.38l3.05-17.14h-18.09l3.14-17.9h18.09l6.57-11.43h20.57l-2,11.43h32.09l-3.14,17.9h-32.09Z"/>
        <path class="cls-1" d="m632.74,85.22c12.57,0,17.74,6.29,15.52,18.85l-5.81,32.57h-21.33l-.67-4.29c-2.48,1.84-4.78,3.02-6.9,3.52-2.13.51-5.32.76-9.57.76h-36.09c-3.94,0-6.89-1.17-8.86-3.52-1.97-2.35-2.57-5.52-1.81-9.52l.95-5.14c1.46-7.81,6.03-11.71,13.71-11.71h50.75l.48-2.86c.25-1.4.16-2.35-.29-2.86-.44-.51-1.37-.76-2.76-.76h-29.33c-1.21,0-2.03.21-2.48.62-.45.41-.79,1.22-1.05,2.43l-.19,1.05h-24.19l.67-4.09c.89-5.52,2.7-9.41,5.43-11.67,2.73-2.25,6.86-3.38,12.38-3.38h51.42Zm-18.47,38.28c1.84,0,3.3-.51,4.38-1.52l1.52-1.33.67-3.81h-34.95c-1.02,0-1.7.16-2.05.48-.35.32-.62.99-.81,2l-.29,1.71c-.13,1.02-.05,1.68.24,2,.29.32.94.48,1.95.48h29.33Z"/>
        <path class="cls-1" d="m745.67,85.22l-9.14,51.42h-21.33l-.67-5.05c-2.79,2.09-5.32,3.46-7.57,4.09-2.25.63-5.54.95-9.86.95h-29.14c-12.7,0-17.9-6.35-15.62-19.04l5.71-32.38h25.14l-5.14,28.95c-.25,1.4-.16,2.35.29,2.86.44.51,1.36.76,2.76.76h27.42c2.16,0,3.87-.51,5.14-1.52l1.52-1.24,5.33-29.81h25.14Z"/>
        <path class="cls-1" d="m790.33,103.12l-2.19,12.19c-.19,1.21-.1,2.02.29,2.43.38.41,1.17.62,2.38.62h28.95l-3.24,18.28h-40.85c-10.98,0-15.49-5.46-13.52-16.38l3.05-17.14h-18.09l3.14-17.9h18.09l6.57-11.43h20.57l-2,11.43h32.09l-3.14,17.9h-32.09Z"/>
        <path class="cls-1" d="m840.33,136.64c-12.57,0-17.77-6.35-15.62-19.04l2.67-15.24c1.08-6.35,3.13-10.79,6.14-13.33,3.01-2.54,7.7-3.81,14.05-3.81h52.37c12.57,0,17.77,6.35,15.62,19.04l-2.67,15.24c-1.08,6.35-3.13,10.79-6.14,13.33-3.02,2.54-7.7,3.81-14.05,3.81h-52.37Zm13.05-18.28h31.04c1.4,0,2.38-.25,2.95-.76.57-.51.98-1.46,1.24-2.86l1.33-7.62c.25-1.4.16-2.35-.29-2.86-.44-.51-1.37-.76-2.76-.76h-31.04c-1.4,0-2.38.25-2.95.76-.57.51-.98,1.46-1.24,2.86l-1.33,7.62c-.25,1.4-.16,2.35.29,2.86.44.51,1.36.76,2.76.76Z"/>
      </g>
    </g>
  </g>
</svg>